<?xml version="1.0" encoding="UTF-8" standalone="yes"?>
<!DOCTYPE svg PUBLIC "-//W3C//DTD SVG 1.1//EN" "http://www.w3.org/Graphics/SVG/1.1/DTD/svg11.dtd">

<svg width="1440" height="781" viewBox="0 0 1440 781" xmlns="http://www.w3.org/2000/svg" xmlns:xlink="http://www.w3.org/1999/xlink" version="1.1" baseProfile="full">
    <g transform="scale(1,-1) translate(0,-781)">
        <path d="M 713.530028 356.723037 L 711.910238 320.786901 L 711.896140 320.611562 L 709.871401 303.147189 L 709.854488 303.026921 L 707.019851 285.898340 L 706.996522 285.776287 L 703.351986 268.983493 L 703.322026 268.860550 L 698.867589 252.403541 L 698.830926 252.280675 L 693.566586 236.159447 L 693.523303 236.037663 L 687.449059 220.252212 L 687.399400 220.132514 L 680.515250 204.682836 L 680.459615 204.566185 L 672.765558 189.452277 L 672.704484 189.339552 L 664.200519 174.561410 L 664.134660 174.453380 L 654.820784 160.011000 L 654.750877 159.908295 L 644.627090 145.801675 L 644.553919 145.704776 L 633.620220 131.933910 L 633.506094 131.800117 L 609.208950 105.265637 L 609.132958 105.182648 L 609.049817 105.106821 L 582.464720 80.860292 L 582.331030 80.746693 L 568.537386 69.835771 L 568.440609 69.762959 L 554.312897 59.660262 L 554.210356 59.590710 L 539.748572 50.296238 L 539.640747 50.230724 L 524.844888 41.744475 L 524.732407 41.683728 L 509.602469 34.005701 L 509.486092 33.950367 L 494.022072 27.080559 L 493.902675 27.031171 L 478.104569 20.969581 L 477.983103 20.926534 L 461.850907 15.673161 L 461.728369 15.636695 L 445.262080 11.191537 L 445.139463 11.161735 L 428.339078 7.524791 L 428.217344 7.501581 L 411.082858 4.672850 L 410.962895 4.656020 L 393.494305 2.635499 L 393.319382 2.621467 L 357.379877 1.005052 L 357.267551 1.000000 L 357.155224 1.005052 L 321.215720 2.621467 L 321.040797 2.635499 L 303.572208 4.656020 L 303.452245 4.672850 L 286.317760 7.501581 L 286.196026 7.524791 L 269.395641 11.161735 L 269.273025 11.191537 L 252.806737 15.636695 L 252.684198 15.673161 L 236.552004 20.926534 L 236.430538 20.969581 L 220.632433 27.031171 L 220.513036 27.080559 L 205.049016 33.950367 L 204.932640 34.005701 L 189.802702 41.683728 L 189.690221 41.744475 L 174.894362 50.230724 L 174.786537 50.296238 L 160.324753 59.590710 L 160.222212 59.660262 L 146.094499 69.762959 L 145.997721 69.835771 L 132.204076 80.746693 L 132.070386 80.860292 L 105.485284 105.106821 L 105.402144 105.182648 L 105.326152 105.265637 L 81.029005 131.800117 L 80.914879 131.933910 L 69.981179 145.704775 L 69.908009 145.801675 L 59.784221 159.908295 L 59.714314 160.011000 L 50.400438 174.453380 L 50.334579 174.561410 L 41.830614 189.339552 L 41.769540 189.452277 L 34.075483 204.566185 L 34.019848 204.682836 L 27.135698 220.132514 L 27.086040 220.252212 L 21.011796 236.037663 L 20.968513 236.159447 L 15.704173 252.280675 L 15.667511 252.403541 L 11.213074 268.860550 L 11.183114 268.983493 L 7.538578 285.776287 L 7.515249 285.898340 L 4.680612 303.026921 L 4.663699 303.147189 L 2.638961 320.611562 L 2.624863 320.786901 L 1.005074 356.723037 L 1.000000 356.835603 L 1.005073 356.948169 L 2.624862 392.887675 L 2.638953 393.062956 L 4.663691 410.531546 L 4.680590 410.651745 L 7.515226 427.786232 L 7.538528 427.908193 L 11.183064 444.708580 L 11.212981 444.831409 L 15.667418 461.297698 L 15.704018 461.420430 L 20.968357 477.552627 L 21.011555 477.674261 L 27.085799 493.472368 L 27.135347 493.591905 L 34.019497 509.055925 L 34.074997 509.172410 L 41.769054 524.302349 L 41.829968 524.414906 L 50.333934 539.210765 L 50.399610 539.318633 L 59.713486 553.780417 L 59.783190 553.882970 L 69.906978 568.010682 L 69.979929 568.107443 L 80.913629 581.901087 L 81.027403 582.034705 L 105.324550 608.619803 L 105.400388 608.702783 L 105.483367 608.778621 L 132.068469 633.075766 L 132.202087 633.189540 L 145.995732 644.123240 L 146.092493 644.196191 L 160.220205 654.319979 L 160.322758 654.389683 L 174.784542 663.703559 L 174.892409 663.769235 L 189.688268 672.273201 L 189.800825 672.334115 L 204.930763 680.028173 L 205.047247 680.083673 L 220.511267 686.967823 L 220.630804 687.017372 L 236.428909 693.091617 L 236.550543 693.134814 L 252.682738 698.399155 L 252.805470 698.435754 L 269.271757 702.890192 L 269.394587 702.920108 L 286.194971 706.564645 L 286.316933 706.587947 L 303.451417 709.422584 L 303.571616 709.439483 L 321.040205 711.464222 L 321.215486 711.478312 L 357.154990 713.098102 L 357.267551 713.103175 L 357.380111 713.098102 L 393.319616 711.478312 L 393.494897 711.464222 L 410.963486 709.439483 L 411.083685 709.422584 L 428.218171 706.587947 L 428.340133 706.564645 L 445.140518 702.920108 L 445.263347 702.890192 L 461.729636 698.435754 L 461.852368 698.399155 L 477.984564 693.134814 L 478.106198 693.091617 L 493.904304 687.017372 L 494.023841 686.967823 L 509.487861 680.083673 L 509.604346 680.028173 L 524.734284 672.334115 L 524.846841 672.273201 L 539.642700 663.769235 L 539.750567 663.703559 L 554.212351 654.389683 L 554.314903 654.319978 L 568.442615 644.196191 L 568.539376 644.123240 L 582.333019 633.189540 L 582.466637 633.075766 L 609.051734 608.778620 L 609.134714 608.702783 L 609.210552 608.619803 L 633.507696 582.034705 L 633.621470 581.901087 L 644.555170 568.107443 L 644.628121 568.010682 L 654.751908 553.882970 L 654.821612 553.780417 L 664.135488 539.318633 L 664.201164 539.210765 L 672.705129 524.414906 L 672.766044 524.302349 L 680.460101 509.172410 L 680.515601 509.055926 L 687.399751 493.591905 L 687.449300 493.472368 L 693.523544 477.674261 L 693.566741 477.552627 L 698.831082 461.420430 L 698.867681 461.297699 L 703.322119 444.831409 L 703.352035 444.708580 L 706.996572 427.908193 L 707.019874 427.786232 L 709.854511 410.651745 L 709.871409 410.531546 L 711.896148 393.062956 L 711.910239 392.887675 L 713.530028 356.948169 L 713.535101 356.835603 L 713.530028 356.723037 Z M 708.535099 356.948179 L 708.535099 356.723048 L 706.915309 392.662554 L 706.929400 392.487273 L 704.904661 409.955864 L 704.921559 409.835665 L 702.086922 426.970151 L 702.110224 426.848190 L 698.465688 443.648576 L 698.495604 443.525747 L 694.041166 459.992036 L 694.077766 459.869304 L 688.813426 476.001501 L 688.856623 475.879867 L 682.782379 491.677974 L 682.831928 491.558437 L 675.947778 507.022458 L 676.003278 506.905974 L 668.309221 522.035912 L 668.370135 521.923355 L 659.866170 536.719214 L 659.931846 536.611347 L 650.617971 551.073131 L 650.687676 550.970579 L 640.563889 565.098291 L 640.636840 565.001531 L 629.703140 578.795175 L 629.816914 578.661557 L 605.519769 605.246655 L 605.678586 605.087838 L 579.093489 629.384984 L 579.227107 629.271210 L 565.433464 640.204910 L 565.530224 640.131959 L 551.402512 650.255747 L 551.505065 650.186042 L 537.043281 659.499918 L 537.151149 659.434241 L 522.355290 667.938207 L 522.467847 667.877293 L 507.337909 675.571350 L 507.454394 675.515850 L 491.990373 682.400000 L 492.109910 682.350451 L 476.311804 688.424696 L 476.433438 688.381499 L 460.301242 693.645839 L 460.423974 693.609239 L 443.957685 698.063677 L 444.080514 698.033761 L 427.280129 701.678298 L 427.402090 701.654996 L 410.267604 704.489633 L 410.387803 704.472734 L 392.919214 706.497473 L 393.094495 706.483383 L 357.154990 708.103172 L 357.380111 708.103172 L 321.440607 706.483383 L 321.615888 706.497473 L 304.147299 704.472734 L 304.267498 704.489633 L 287.133014 701.654996 L 287.254975 701.678298 L 270.454591 698.033761 L 270.577420 698.063677 L 254.111132 693.609239 L 254.233864 693.645839 L 238.101669 688.381499 L 238.223303 688.424696 L 222.425197 682.350451 L 222.544734 682.400000 L 207.080715 675.515850 L 207.197199 675.571350 L 192.067262 667.877293 L 192.179819 667.938207 L 177.383960 659.434241 L 177.491828 659.499918 L 163.030044 650.186042 L 163.132596 650.255747 L 149.004883 640.131959 L 149.101644 640.204910 L 135.307999 629.271210 L 135.441617 629.384984 L 108.856515 605.087838 L 109.015332 605.246655 L 84.718185 578.661557 L 84.831959 578.795175 L 73.898259 565.001531 L 73.971210 565.098291 L 63.847422 550.970579 L 63.917127 551.073131 L 54.603251 536.611347 L 54.668928 536.719214 L 46.164962 521.923355 L 46.225877 522.035912 L 38.531820 506.905974 L 38.587320 507.022458 L 31.703171 491.558437 L 31.752720 491.677974 L 25.678476 475.879867 L 25.721673 476.001501 L 20.457333 459.869305 L 20.493933 459.992036 L 16.039496 443.525747 L 16.069412 443.648576 L 12.424876 426.848190 L 12.448178 426.970151 L 9.613541 409.835665 L 9.630440 409.955864 L 7.605701 392.487273 L 7.619792 392.662554 L 6.000003 356.723048 L 6.000002 356.948179 L 7.619791 321.012043 L 7.605693 321.187382 L 9.630432 303.723009 L 9.613519 303.843276 L 12.448155 286.714695 L 12.424826 286.836748 L 16.069362 270.043954 L 16.039403 270.166898 L 20.493840 253.709889 L 20.457178 253.832755 L 25.721517 237.711526 L 25.678235 237.833310 L 31.752479 222.047858 L 31.702820 222.167556 L 38.586970 206.717879 L 38.531334 206.834530 L 46.225391 191.720622 L 46.164317 191.833347 L 54.668282 177.055205 L 54.602423 177.163236 L 63.916299 162.720856 L 63.846391 162.823561 L 73.970179 148.716940 L 73.897008 148.813840 L 84.830709 135.042974 L 84.716584 135.176767 L 109.013730 108.642287 L 108.854598 108.801104 L 135.439700 84.554575 L 135.306010 84.668174 L 149.099655 73.757251 L 149.002877 73.830063 L 163.130590 63.727367 L 163.028049 63.796919 L 177.489833 54.502447 L 177.382008 54.567960 L 192.177867 46.081711 L 192.065385 46.142458 L 207.195322 38.464430 L 207.078946 38.519763 L 222.542966 31.649955 L 222.423568 31.699343 L 238.221674 25.637754 L 238.100208 25.680801 L 254.232403 20.427429 L 254.109864 20.463895 L 270.576152 16.018737 L 270.453536 16.048540 L 287.253920 12.411596 L 287.132186 12.434806 L 304.266671 9.606075 L 304.146708 9.622905 L 321.615296 7.602385 L 321.440373 7.616417 L 357.379877 6.000003 L 357.155224 6.000003 L 393.094729 7.616417 L 392.919806 7.602385 L 410.388395 9.622905 L 410.268432 9.606075 L 427.402918 12.434806 L 427.281184 12.411596 L 444.081569 16.048540 L 443.958953 16.018737 L 460.425242 20.463895 L 460.302703 20.427429 L 476.434899 25.680801 L 476.313433 25.637754 L 492.111539 31.699343 L 491.992142 31.649955 L 507.456162 38.519764 L 507.339786 38.464430 L 522.469724 46.142458 L 522.357242 46.081711 L 537.153101 54.567960 L 537.045276 54.502447 L 551.507060 63.796919 L 551.404519 63.727367 L 565.532231 73.830063 L 565.435453 73.757251 L 579.229097 84.668174 L 579.095407 84.554575 L 605.680504 108.801104 L 605.521371 108.642287 L 629.818515 135.176767 L 629.704390 135.042974 L 640.638090 148.813840 L 640.564920 148.716940 L 650.688707 162.823561 L 650.618799 162.720856 L 659.932674 177.163236 L 659.866815 177.055205 L 668.370781 191.833347 L 668.309707 191.720622 L 676.003764 206.834530 L 675.948128 206.717879 L 682.832278 222.167556 L 682.782620 222.047858 L 688.856864 237.833310 L 688.813581 237.711526 L 694.077922 253.832755 L 694.041259 253.709889 L 698.495697 270.166898 L 698.465737 270.043955 L 702.110274 286.836748 L 702.086945 286.714695 L 704.921582 303.843276 L 704.904669 303.723009 L 706.929408 321.187382 L 706.915310 321.012043 L 708.535099 356.948179 Z M 650.654118 356.723360 L 649.300919 386.831560 L 649.322559 386.597078 L 645.262957 415.584833 L 645.309376 415.341715 L 638.543359 443.209050 L 638.616199 442.964314 L 629.143757 469.711254 L 629.242357 469.472747 L 617.063481 495.099318 L 617.184745 494.874548 L 602.299424 519.380775 L 602.438288 519.175777 L 584.846512 542.561685 L 584.996859 542.380286 L 564.698617 564.645902 L 564.857480 564.486661 L 542.642487 584.835527 L 542.824076 584.684336 L 519.482039 602.319984 L 519.687429 602.180273 L 495.218324 617.102715 L 495.443673 616.980672 L 469.847474 629.189919 L 470.086697 629.090674 L 443.363379 638.586737 L 443.608893 638.513429 L 415.758431 645.296318 L 416.002309 645.249614 L 387.024678 649.319339 L 387.259835 649.297577 L 357.155011 650.654150 L 357.380078 650.654149 L 327.271880 649.297576 L 327.506930 649.319322 L 298.519177 645.249597 L 298.762836 645.296235 L 270.895502 638.513346 L 271.140698 638.586504 L 244.393758 629.090441 L 244.632599 629.189424 L 219.006029 616.980176 L 219.230980 617.101839 L 194.724754 602.179396 L 194.929780 602.318624 L 171.543873 584.682976 L 171.725171 584.833614 L 149.459557 564.484748 L 149.618421 564.643612 L 129.269561 542.377996 L 129.420199 542.559295 L 111.784553 519.173386 L 111.923781 519.378413 L 97.001339 494.872186 L 97.123002 495.097136 L 84.913754 469.470565 L 85.012737 469.709406 L 75.516673 442.962465 L 75.589830 443.207661 L 68.806939 415.340326 L 68.853578 415.583985 L 64.783851 386.596230 L 64.805597 386.831281 L 63.449023 356.723081 L 63.449023 356.948148 L 64.805596 326.843323 L 64.783834 327.078480 L 68.853561 298.100848 L 68.806857 298.344726 L 75.589748 270.494262 L 75.516439 270.739776 L 85.012504 244.016457 L 84.913259 244.255680 L 97.122507 218.659480 L 97.000463 218.884829 L 111.922905 194.415722 L 111.783193 194.621113 L 129.418839 171.279075 L 129.267648 171.460663 L 149.616508 149.245669 L 149.457267 149.404533 L 171.722881 129.106290 L 171.541482 129.256638 L 194.927390 111.664861 L 194.722392 111.803726 L 219.228618 96.918404 L 219.003848 97.039668 L 244.630418 84.860792 L 244.391910 84.959392 L 271.138849 75.486950 L 270.894113 75.559789 L 298.761447 68.793772 L 298.518329 68.840192 L 327.506082 64.780589 L 327.271600 64.802229 L 357.379799 63.449030 L 357.155290 63.449029 L 387.260115 64.802228 L 387.025526 64.780572 L 416.003157 68.840175 L 415.759820 68.793690 L 443.610282 75.559707 L 443.365229 75.486718 L 470.088547 84.959159 L 469.849656 84.860298 L 495.445856 97.039174 L 495.220686 96.917530 L 519.689792 111.802852 L 519.484429 111.663504 L 542.826466 129.255281 L 542.644776 129.104380 L 564.859768 149.402623 L 564.700527 149.243382 L 584.998769 171.458375 L 584.847868 171.276685 L 602.439645 194.618723 L 602.300298 194.413360 L 617.185619 218.882466 L 617.063975 218.657297 L 629.242851 244.253498 L 629.143990 244.014607 L 638.616431 270.737927 L 638.543441 270.492873 L 645.309458 298.343336 L 645.262973 298.099999 L 649.322576 327.077631 L 649.300920 326.843043 L 650.654119 356.947869 L 650.654118 356.723360 Z M 655.649076 356.947856 L 655.654121 356.835602 L 655.649075 356.723348 L 654.295876 326.618522 L 654.290581 326.500717 L 654.274220 326.383934 L 650.214618 297.406302 L 650.197411 297.283480 L 650.168133 297.162965 L 643.402116 269.312502 L 643.371896 269.188106 L 643.329127 269.067448 L 633.856685 242.344128 L 633.813439 242.222124 L 633.757824 242.105238 L 621.578948 216.509037 L 621.523896 216.393335 L 621.457303 216.283868 L 606.571982 191.814761 L 606.507411 191.708617 L 606.432634 191.609398 L 588.840858 168.267360 L 588.769703 168.172947 L 588.689957 168.085670 L 568.391714 145.870677 L 568.315683 145.787466 L 568.232473 145.711436 L 546.017480 125.413193 L 545.930204 125.333447 L 545.835791 125.262292 L 522.493754 107.670515 L 522.394535 107.595739 L 522.288391 107.531168 L 497.819285 92.645846 L 497.709818 92.579254 L 497.594116 92.524202 L 471.997916 80.345325 L 471.881030 80.289710 L 471.759026 80.246464 L 445.035707 70.774022 L 444.915049 70.731253 L 444.790654 70.701032 L 416.940191 63.935015 L 416.819676 63.905737 L 416.696855 63.888530 L 387.719224 59.828928 L 387.602441 59.812567 L 387.484636 59.807272 L 357.379811 58.454073 L 357.267557 58.449027 L 357.155303 58.454072 L 327.047104 59.807271 L 326.929353 59.812563 L 326.812622 59.828911 L 297.824869 63.888514 L 297.702159 63.905699 L 297.581751 63.934933 L 269.714417 70.700950 L 269.590187 70.731113 L 269.469681 70.773790 L 242.722742 80.246231 L 242.600940 80.289368 L 242.484234 80.344831 L 216.857664 92.523708 L 216.742178 92.578592 L 216.632894 92.644972 L 192.126667 107.530294 L 192.020726 107.594644 L 191.921669 107.669158 L 168.535761 125.260935 L 168.441515 125.331831 L 168.354362 125.411283 L 146.088748 145.709526 L 146.005550 145.785372 L 145.929507 145.868389 L 125.580647 168.083382 L 125.500756 168.170600 L 125.429456 168.264970 L 107.793810 191.607008 L 107.718846 191.706228 L 107.654099 191.812398 L 92.731657 216.281505 L 92.664853 216.391048 L 92.609614 216.506854 L 80.400366 242.103055 L 80.344539 242.220093 L 80.301121 242.342279 L 70.805057 269.065598 L 70.762104 269.186474 L 70.731748 269.311112 L 63.948858 297.161576 L 63.919443 297.282353 L 63.902154 297.405454 L 59.832427 326.383086 L 59.815986 326.500150 L 59.810665 326.618243 L 58.454092 356.723068 L 58.449021 356.835602 L 58.454091 356.948136 L 59.810664 387.056336 L 59.815983 387.174375 L 59.832411 387.291386 L 63.902137 416.279141 L 63.919404 416.402129 L 63.948776 416.522800 L 70.731666 444.390135 L 70.761963 444.514607 L 70.804823 444.635330 L 80.300888 471.382271 L 80.344196 471.504254 L 80.399870 471.621112 L 92.609118 497.247683 L 92.664189 497.363274 L 92.730781 497.472633 L 107.653222 521.978861 L 107.717749 522.084829 L 107.792451 522.183888 L 125.428096 545.569796 L 125.499137 545.664000 L 125.578734 545.751095 L 145.927594 568.016711 L 146.003453 568.099715 L 146.086458 568.175575 L 168.352072 588.524440 L 168.439167 588.604037 L 168.533371 588.675078 L 191.919279 606.310727 L 192.018337 606.385428 L 192.124306 606.449955 L 216.630532 621.372398 L 216.739892 621.438990 L 216.855483 621.494060 L 242.482053 633.703308 L 242.598911 633.758982 L 242.720893 633.802290 L 269.467833 643.298353 L 269.588556 643.341214 L 269.713028 643.371510 L 297.580362 650.154399 L 297.701033 650.183770 L 297.824021 650.201037 L 326.811774 654.270763 L 326.928786 654.287190 L 327.046825 654.292509 L 357.155023 655.649082 L 357.267557 655.654152 L 357.380091 655.649081 L 387.484915 654.292508 L 387.603008 654.287187 L 387.720072 654.270746 L 416.697703 650.201020 L 416.820803 650.183732 L 416.941581 650.154317 L 444.792043 643.371428 L 444.916681 643.341073 L 445.037557 643.298120 L 471.760875 633.802057 L 471.883061 633.758639 L 472.000099 633.702812 L 497.596299 621.493565 L 497.712105 621.438326 L 497.821648 621.371521 L 522.290753 606.449079 L 522.396923 606.384331 L 522.496144 606.309367 L 545.838180 588.673718 L 545.932551 588.602418 L 546.019769 588.522527 L 568.234761 568.173662 L 568.317778 568.097618 L 568.393624 568.014421 L 588.691867 545.748805 L 588.771319 545.661652 L 588.842214 545.567406 L 606.433991 522.181497 L 606.508505 522.082441 L 606.572856 521.976499 L 621.458177 497.470272 L 621.524557 497.360988 L 621.579441 497.245501 L 633.758317 471.618930 L 633.813781 471.502224 L 633.856917 471.380422 L 643.329359 444.633482 L 643.372036 444.512976 L 643.402198 444.388746 L 650.168215 416.521411 L 650.197450 416.401002 L 650.214635 416.278293 L 654.274237 387.290538 L 654.290585 387.173807 L 654.295877 387.056056 L 655.649076 356.947856 Z M 432.322619 538.871660 L 430.986291 525.346278 L 430.960152 525.081712 L 430.878958 524.828561 L 426.869961 512.329097 L 426.786801 512.069818 L 426.649775 511.834521 L 419.968091 500.360936 L 419.840019 500.141015 L 419.670258 499.951413 L 410.315866 489.503669 L 410.164311 489.334400 L 409.984724 489.195226 L 398.767573 480.502258 L 398.578468 480.355706 L 398.365000 480.247681 L 386.095018 474.038437 L 385.875929 473.927568 L 385.639457 473.861442 L 372.316596 470.135907 L 372.091432 470.072943 L 371.858496 470.052821 L 357.482710 468.810980 L 357.268848 468.792506 L 357.054967 468.810759 L 342.503705 470.052600 L 342.271746 470.072396 L 342.047431 470.134681 L 328.630078 473.860215 L 328.391802 473.926376 L 328.171105 474.037938 L 315.887621 480.247181 L 315.670314 480.357029 L 315.478287 480.506744 L 304.328631 489.199712 L 304.147347 489.341053 L 303.994876 489.513082 L 294.734977 499.960826 L 294.566710 500.150678 L 294.440011 500.370462 L 287.825817 511.844048 L 287.690753 512.078342 L 287.608917 512.336099 L 283.640412 524.835564 L 283.560710 525.086601 L 283.535072 525.348737 L 282.212240 538.874119 L 282.188440 539.117467 L 282.212240 539.360815 L 283.535072 552.886197 L 283.560710 553.148333 L 283.640412 553.399370 L 287.608917 565.898835 L 287.690753 566.156592 L 287.825817 566.390886 L 294.440011 577.864471 L 294.566710 578.084255 L 294.734977 578.274108 L 303.994876 588.721851 L 304.147347 588.893881 L 304.328631 589.035221 L 315.478287 597.728189 L 315.670314 597.877905 L 315.887621 597.987753 L 328.171105 604.196996 L 328.391802 604.308557 L 328.630078 604.374718 L 342.047431 608.100253 L 342.271746 608.162537 L 342.503705 608.182333 L 357.054967 609.424175 L 357.268848 609.442428 L 357.482710 609.423953 L 371.858496 608.182112 L 372.091432 608.161990 L 372.316596 608.099026 L 385.639457 604.373492 L 385.875929 604.307366 L 386.095018 604.196496 L 398.365000 597.987253 L 398.578468 597.879227 L 398.767573 597.732676 L 409.984724 589.039708 L 410.164311 588.900534 L 410.315866 588.731265 L 419.670258 578.283521 L 419.840019 578.093919 L 419.968091 577.873998 L 426.649775 566.400412 L 426.786801 566.165115 L 426.869961 565.905837 L 430.878958 553.406372 L 430.960152 553.153221 L 430.986291 552.888656 L 432.322619 539.363274 L 432.346905 539.117467 L 432.322619 538.871660 Z M 427.346846 539.363274 L 427.346846 538.871660 L 426.010518 552.397042 L 426.117852 551.879326 L 422.108855 564.378791 L 422.329040 563.884216 L 415.647355 575.357801 L 415.945187 574.948278 L 406.590796 585.396021 L 406.921938 585.087578 L 395.704786 593.780545 L 396.107360 593.525968 L 383.837378 599.735211 L 384.292938 599.558216 L 370.970078 603.283750 L 371.428178 603.200664 L 357.052391 604.442505 L 357.480134 604.442284 L 342.928872 603.200443 L 343.385147 603.282524 L 329.967795 599.556989 L 330.426769 599.734712 L 318.143285 593.525469 L 318.552619 593.785032 L 307.402962 585.092064 L 307.736718 585.405434 L 298.476819 574.957691 L 298.771786 575.367327 L 292.157592 563.893742 L 292.374492 564.385793 L 288.405988 551.886329 L 288.511328 552.399501 L 287.188497 538.874119 L 287.188497 539.360815 L 288.511328 525.835432 L 288.405988 526.348605 L 292.374492 513.849140 L 292.157592 514.341192 L 298.771786 502.867606 L 298.476819 503.277243 L 307.736718 492.829499 L 307.402962 493.142869 L 318.552619 484.449902 L 318.143285 484.709465 L 330.426769 478.500222 L 329.967795 478.677944 L 343.385147 474.952410 L 342.928872 475.034491 L 357.480134 473.792650 L 357.052391 473.792428 L 371.428178 475.034270 L 370.970078 474.951184 L 384.292938 478.676718 L 383.837378 478.499722 L 396.107360 484.708965 L 395.704786 484.454388 L 406.921938 493.147356 L 406.590796 492.838913 L 415.945187 503.286656 L 415.647355 502.877133 L 422.329040 514.350718 L 422.108855 513.856143 L 426.117852 526.355608 L 426.010518 525.837891 L 427.346846 539.363274 Z M 416.444360 89.983719 L 297.658794 89.983719 L 295.158794 89.983719 L 295.158794 92.483719 L 295.158794 429.402794 L 295.158794 431.902794 L 297.658794 431.902794 L 416.444360 431.902794 L 418.944360 431.902794 L 418.944360 429.402794 L 418.944360 92.483719 L 418.944360 89.983719 L 416.444360 89.983719 Z M 416.444360 94.983719 L 413.944360 92.483719 L 413.944360 429.402794 L 416.444360 426.902794 L 297.658794 426.902794 L 300.158794 429.402794 L 300.158794 92.483719 L 297.658794 94.983719 L 416.444360 94.983719 Z" transform="scale(1.000000,1.000000) translate(447.599553,42.819284)" fill="#ffffff" opacity="1.000000"></path>
    </g>
</svg>