<?xml version="1.0" encoding="UTF-8" standalone="yes"?>
<!DOCTYPE svg PUBLIC "-//W3C//DTD SVG 1.1//EN" "http://www.w3.org/Graphics/SVG/1.1/DTD/svg11.dtd">

<svg width="1440" height="781" viewBox="0 0 1440 781" xmlns="http://www.w3.org/2000/svg" xmlns:xlink="http://www.w3.org/1999/xlink" version="1.1" baseProfile="full">
    <g transform="scale(1,-1) translate(0,-781)">
        <path d="M 32.320224 524.884398 L 403.446563 325.502706 L 403.088020 325.660489 L 423.569079 318.504454 L 423.015145 318.629669 L 447.937865 315.915322 L 447.376619 315.913075 L 470.572011 318.627421 L 470.029025 318.501309 L 490.263291 325.657345 L 489.913693 325.502706 L 861.040032 524.884398 L 860.851055 524.771891 L 869.518491 530.462797 L 869.135309 530.153133 L 876.877398 537.787265 L 876.579711 537.433731 L 882.656174 546.178276 L 882.393483 545.693787 L 886.064040 554.715933 L 885.884512 553.928354 L 886.408883 562.395289 L 886.645861 561.168215 L 883.283767 568.247127 L 884.243058 567.183614 L 876.254219 572.041690 L 877.218452 571.700252 L 863.862588 573.504680 L 864.197307 573.482172 L 29.162996 573.482172 L 29.497715 573.504680 L 16.141853 571.700252 L 17.106085 572.041690 L 9.117245 567.183614 L 10.076535 568.247126 L 6.714436 561.168214 L 6.951414 562.395287 L 7.475779 553.928352 L 7.296251 554.715931 L 10.966800 545.693785 L 10.704109 546.178275 L 16.780563 537.433730 L 16.482875 537.787264 L 24.224956 530.153132 L 23.841774 530.462797 L 32.509202 524.771891 L 32.320224 524.884398 Z M 29.953918 520.479787 L 29.764940 520.592294 L 21.097512 526.283200 L 20.890590 526.419062 L 20.714330 526.592865 L 12.972249 534.226996 L 12.806996 534.389946 L 12.674561 534.580530 L 6.598107 543.325075 L 6.439897 543.552753 L 6.335416 543.809564 L 2.664868 552.831710 L 2.510638 553.210805 L 2.485340 553.619290 L 1.960975 562.086225 L 1.921084 562.730349 L 2.197954 563.313298 L 5.560052 570.392210 L 5.880716 571.067368 L 6.519343 571.455722 L 14.508184 576.313798 L 14.954619 576.585279 L 15.472416 576.655235 L 28.828278 578.459663 L 28.994880 578.482172 L 29.162996 578.482172 L 864.197307 578.482172 L 864.365423 578.482172 L 864.532025 578.459663 L 877.887889 576.655235 L 878.405685 576.585279 L 878.852121 576.313797 L 886.840960 571.455721 L 887.479587 571.067367 L 887.800251 570.392208 L 891.162344 563.313297 L 891.439213 562.730347 L 891.399322 562.086223 L 890.874950 553.619288 L 890.849652 553.210803 L 890.695422 552.831709 L 887.024865 543.809562 L 886.920384 543.552752 L 886.762174 543.325074 L 880.685710 534.580529 L 880.553276 534.389944 L 880.388023 534.226995 L 872.645933 526.592864 L 872.469673 526.419061 L 872.262751 526.283199 L 863.595315 520.592293 L 863.406339 520.479787 L 492.279999 321.098095 L 492.111129 321.007373 L 491.930401 320.943456 L 471.696135 313.787421 L 471.431717 313.693907 L 471.153150 313.661309 L 447.957758 310.946962 L 447.677263 310.914138 L 447.396513 310.944715 L 422.473793 313.659061 L 422.189669 313.690005 L 421.919860 313.784276 L 401.438800 320.940312 L 401.253329 321.005115 L 401.080257 321.098095 L 29.953918 520.479787 Z M 873.261867 421.768049 L 679.062141 319.116091 L 492.246440 222.376570 L 492.103005 222.302295 L 491.951205 222.247095 L 470.236377 214.350778 L 469.931467 214.239901 L 469.608356 214.210528 L 447.893527 212.236463 L 447.675530 212.216645 L 447.457406 212.235013 L 424.015250 214.209078 L 423.688107 214.236627 L 423.379169 214.347706 L 401.417547 222.244023 L 401.261279 222.300209 L 401.113816 222.376570 L 214.316852 319.106304 L 20.098389 421.768049 L 20.476119 421.606562 L 9.371939 425.307960 L 11.147304 425.381803 L 5.965353 423.160978 L 7.405914 424.852502 L 5.925356 418.930283 L 6.000000 419.536623 L 6.000000 412.133841 L 6.000000 50.877827 L 5.976375 51.220710 L 7.121493 42.950413 L 6.977139 43.508464 L 10.181158 35.215032 L 9.865150 35.792507 L 21.061865 20.524262 L 20.524262 21.061865 L 35.792510 9.865150 L 35.215034 10.181158 L 43.508468 6.977139 L 42.950417 7.121493 L 51.220717 5.976375 L 50.877834 6.000000 L 842.482422 6.000000 L 842.142956 5.976845 L 850.498093 7.121964 L 849.957313 6.985026 L 858.474379 10.189045 L 857.918048 9.895170 L 873.864882 21.091885 L 873.328077 20.580703 L 885.203369 35.848949 L 884.866303 35.268996 L 888.293942 43.562428 L 888.131586 42.975280 L 889.361527 51.245577 L 889.334331 50.877827 L 889.334331 412.133841 L 889.336498 412.029765 L 889.028048 419.432547 L 889.177113 418.680300 L 887.017967 424.602519 L 888.480845 423.121066 L 882.620306 425.341891 L 884.277459 425.301611 L 872.864830 421.600213 L 873.261867 421.768049 Z M 870.925267 426.188490 L 871.116524 426.289587 L 871.322304 426.356326 L 882.734933 430.057724 L 883.570587 430.328748 L 884.392086 430.017444 L 890.252625 427.796618 L 891.323312 427.390886 L 891.715503 426.315165 L 893.874649 420.392946 L 894.007560 420.028391 L 894.023714 419.640699 L 894.332163 412.237917 L 894.334331 412.133841 L 894.334331 50.877827 L 894.334331 50.692947 L 894.307135 50.510077 L 893.077194 42.239780 L 893.032053 41.936241 L 892.914838 41.652632 L 889.487198 33.359200 L 889.357923 33.046407 L 889.150132 32.779247 L 877.274839 17.511002 L 877.044752 17.215175 L 876.738034 16.999820 L 860.791201 5.803105 L 860.531674 5.620884 L 860.234870 5.509230 L 851.717804 2.305211 L 851.455101 2.206385 L 851.177024 2.168273 L 842.821887 1.023155 L 842.652944 1.000000 L 842.482422 1.000000 L 50.877834 1.000000 L 50.705579 1.000000 L 50.534952 1.023625 L 42.264652 2.168744 L 41.977249 2.208538 L 41.706600 2.313099 L 33.413166 5.517117 L 33.103444 5.636773 L 32.835691 5.833125 L 17.567444 17.029840 L 17.257288 17.257288 L 17.029841 17.567443 L 5.833125 32.835689 L 5.636773 33.103441 L 5.517117 33.413164 L 2.313099 41.706596 L 2.208538 41.977245 L 2.168744 42.264647 L 1.023625 50.534945 L 1.000000 50.705572 L 1.000000 50.877827 L 1.000000 412.133841 L 1.000000 419.536623 L 1.000000 419.844388 L 1.074644 420.142963 L 2.555202 426.065182 L 2.855963 427.268222 L 3.995764 427.756706 L 9.177715 429.977532 L 10.051360 430.351949 L 10.953080 430.051376 L 22.057259 426.349978 L 22.252780 426.284804 L 22.434989 426.188490 L 216.634746 323.536533 L 403.413004 226.816585 L 403.109273 226.949133 L 425.070895 219.052816 L 424.434815 219.191443 L 447.876971 217.217378 L 447.440851 217.215929 L 469.155679 219.189994 L 468.527658 219.049744 L 490.242487 226.946061 L 489.947252 226.816585 L 676.744247 323.546319 L 870.925267 426.188490 Z" transform="scale(1.000000,1.000000) translate(417.309482,116.932930)" fill="#ffffff" opacity="1.000000"></path>
    </g>
</svg>