<?xml version="1.0" encoding="UTF-8" standalone="yes"?>
<!DOCTYPE svg PUBLIC "-//W3C//DTD SVG 1.1//EN" "http://www.w3.org/Graphics/SVG/1.1/DTD/svg11.dtd">

<svg width="1440" height="781" viewBox="0 0 1440 781" xmlns="http://www.w3.org/2000/svg" xmlns:xlink="http://www.w3.org/1999/xlink" version="1.1" baseProfile="full">
    <g transform="scale(1,-1) translate(0,-781)">
        <path d="M 7.035534 290.374549 L 7.793866 290.374549 L 9.293868 290.374549 L 9.999750 289.051017 L 12.369542 284.607645 L 12.151117 284.947754 L 15.089649 281.096840 L 14.803795 281.411802 L 18.311071 278.153343 L 17.977918 278.414012 L 22.053942 275.748005 L 21.704615 275.938641 L 26.349391 273.865084 L 26.013454 273.987078 L 31.226986 272.505969 L 30.786778 272.589294 L 42.920125 271.404410 L 46.239378 271.046351 L 46.524144 271.015622 L 46.794581 270.921283 L 49.851602 269.854886 L 50.247878 269.716651 L 50.577288 269.456589 L 55.980404 265.190960 L 56.339579 264.907399 L 56.575021 264.514997 L 60.271898 258.353552 L 60.511802 257.953712 L 60.591437 257.494274 L 61.823719 250.384907 L 61.860449 250.173004 L 61.860449 249.957942 L 61.860449 60.374910 L 61.853960 60.554921 L 62.493798 51.691897 L 62.437306 52.069507 L 64.356827 43.680474 L 64.237635 44.059699 L 67.436847 36.144624 L 67.260945 36.497025 L 71.739856 29.055877 L 71.525192 29.359007 L 77.046803 22.676188 L 76.783055 22.950016 L 83.110374 17.309928 L 82.801224 17.545079 L 89.934276 12.947702 L 89.601574 13.128056 L 97.540382 9.573373 L 96.518722 9.791661 L 349.801645 9.791661 L 349.577553 9.781597 L 354.317141 10.208156 L 353.837230 10.117048 L 358.197631 11.396729 L 357.721078 11.201598 L 361.702311 13.334407 L 361.287392 13.055405 L 364.889476 16.041347 L 364.560255 15.712126 L 367.546200 19.314209 L 367.267197 18.899287 L 369.400005 22.880522 L 369.204875 22.403969 L 370.484553 26.764372 L 370.393446 26.284462 L 370.820004 31.024048 L 370.809940 30.799957 L 370.809940 237.824628 L 370.820004 237.600537 L 370.393446 242.340125 L 370.484553 241.860215 L 369.204875 246.220616 L 369.400005 245.744062 L 367.267197 249.725295 L 367.546200 249.310375 L 364.560254 252.912460 L 364.889475 252.583239 L 361.287391 255.569184 L 361.702311 255.290182 L 357.721078 257.422989 L 358.197632 257.227859 L 353.837231 258.507538 L 354.317141 258.416430 L 349.577553 258.842988 L 349.801645 258.832924 L 260.318456 258.832924 L 260.542548 258.842988 L 255.802960 258.416430 L 256.282870 258.507538 L 251.922469 257.227859 L 252.399023 257.422989 L 248.417790 255.290182 L 248.832710 255.569184 L 245.230626 252.583239 L 245.559847 252.912460 L 242.573902 249.310375 L 242.852904 249.725295 L 240.720096 245.744062 L 240.915227 246.220616 L 239.635548 241.860215 L 239.726655 242.340125 L 239.300098 237.600537 L 239.310161 237.824628 L 239.310161 128.624802 L 239.310161 128.508775 L 239.299415 128.393246 L 238.825463 123.298191 L 238.801892 123.044803 L 238.727748 122.801362 L 237.305885 118.132886 L 237.227713 117.876221 L 237.096857 117.641988 L 234.727071 113.400077 L 234.600867 113.174174 L 234.431070 112.978908 L 231.113351 109.163546 L 230.963239 108.990918 L 230.784289 108.848401 L 226.826731 105.696575 L 226.641171 105.548794 L 226.431129 105.438550 L 222.141821 103.187253 L 221.920887 103.071293 L 221.681392 103.001286 L 217.060316 101.650512 L 216.827156 101.582357 L 216.585237 101.560365 L 211.632373 101.110108 L 211.405492 101.089483 L 211.178619 101.110206 L 206.249451 101.560463 L 206.002804 101.582993 L 205.765373 101.653481 L 201.215386 103.004255 L 200.967209 103.077933 L 200.739394 103.200901 L 196.568576 105.452198 L 196.349453 105.570475 L 196.157965 105.729650 L 192.366300 108.881476 L 192.186173 109.031207 L 192.036994 109.211791 L 188.885168 113.027153 L 188.723387 113.222993 L 188.604304 113.447371 L 186.353006 117.689282 L 186.231698 117.917852 L 186.159777 118.166422 L 184.809003 122.834898 L 184.741564 123.067977 L 184.720204 123.309675 L 184.269947 128.404731 L 184.260242 128.624802 L 184.260242 237.824628 L 184.260242 237.939860 L 184.270843 238.054603 L 185.621613 252.676228 L 185.644555 252.924560 L 185.716101 253.163467 L 189.768424 266.694937 L 189.842693 266.942936 L 189.966204 267.170455 L 196.720096 279.611815 L 196.838076 279.829147 L 196.996348 280.019152 L 206.451827 291.370447 L 206.597618 291.545469 L 206.772639 291.691260 L 218.123934 301.146739 L 218.313940 301.305011 L 218.531271 301.422991 L 230.972631 308.176884 L 231.200149 308.300394 L 231.448148 308.374663 L 244.979618 312.426986 L 245.218525 312.498533 L 245.466857 312.521474 L 260.088481 313.872245 L 260.203225 313.882845 L 260.318456 313.882845 L 349.801645 313.882845 L 349.916877 313.882845 L 350.031620 313.872245 L 364.653244 312.521474 L 364.901576 312.498533 L 365.140483 312.426986 L 378.671953 308.374663 L 378.919952 308.300394 L 379.147470 308.176884 L 391.588830 301.422991 L 391.806162 301.305011 L 391.996167 301.146739 L 403.347462 291.691260 L 403.522484 291.545469 L 403.668274 291.370447 L 413.123753 280.019152 L 413.282025 279.829147 L 413.400005 279.611815 L 420.153898 267.170455 L 420.277408 266.942936 L 420.351677 266.694937 L 424.404000 253.163467 L 424.475547 252.924560 L 424.498488 252.676228 L 425.849259 238.054603 L 425.859859 237.939860 L 425.859859 237.824628 L 425.859859 30.799957 L 425.859859 30.678715 L 425.848127 30.558042 L 424.521049 16.908064 L 424.498379 16.674885 L 424.432781 16.449978 L 420.451534 2.799999 L 418.051534 6.000000 L 493.884745 6.000000 L 493.655590 5.989476 L 504.983212 7.032175 L 504.496982 6.938158 L 514.971431 10.066266 L 514.495756 9.868846 L 524.117070 15.082377 L 523.708686 14.805739 L 532.476904 22.104709 L 532.154943 21.782747 L 539.453906 30.550973 L 539.177269 30.142592 L 544.390801 39.763908 L 544.193381 39.288235 L 547.321492 49.762681 L 547.227476 49.276451 L 548.270177 60.604065 L 548.259652 60.374910 L 548.259652 249.957942 L 548.259652 250.173004 L 548.296382 250.384907 L 549.528664 257.494274 L 549.608300 257.953712 L 549.848204 258.353552 L 553.545080 264.514997 L 553.780523 264.907400 L 554.139699 265.190961 L 559.542823 269.456590 L 559.872233 269.716651 L 560.268508 269.854886 L 563.325530 270.921283 L 563.595967 271.015621 L 563.880732 271.046351 L 567.174735 271.401815 L 579.333321 272.589294 L 578.893114 272.505969 L 584.106646 273.987078 L 583.770710 273.865084 L 588.415487 275.938641 L 588.066160 275.748005 L 592.142185 278.414012 L 591.809032 278.153343 L 595.316308 281.411802 L 595.030455 281.096840 L 597.968986 284.947754 L 597.750561 284.607644 L 600.120351 289.051016 L 600.826233 290.374549 L 602.326235 290.374549 L 603.084567 290.374549 L 603.084567 287.874549 L 601.316801 286.106782 L 600.558468 286.865114 L 599.485221 287.938362 L 599.942279 289.385710 L 601.648526 294.788820 L 601.545310 294.288923 L 602.114060 299.881629 L 602.120663 299.317605 L 601.220149 306.498072 L 601.362780 305.923701 L 598.661231 313.056749 L 598.889145 312.601393 L 594.386550 319.687047 L 594.634291 319.359963 L 588.330639 326.398248 L 588.403665 326.320140 L 343.462395 577.328075 L 343.665032 577.142084 L 335.181178 584.109286 L 335.610251 583.825417 L 326.083725 588.801969 L 326.561599 588.612005 L 315.992362 591.597924 L 316.458535 591.512893 L 304.846550 592.508195 L 305.273551 592.508195 L 293.661566 591.512893 L 294.127739 591.597924 L 283.558503 588.612005 L 284.036376 588.801969 L 274.509850 583.825417 L 274.938924 584.109286 L 266.455069 577.142084 L 266.657706 577.328075 L 21.716437 326.320140 L 21.805929 326.416818 L 15.502273 319.236351 L 15.737579 319.551230 L 11.234985 312.418181 L 11.456902 312.862001 L 8.755355 305.776346 L 8.899168 306.349706 L 7.998655 299.311421 L 8.005133 299.890408 L 8.573880 294.487299 L 8.478809 294.955105 L 10.185059 289.362398 L 10.623104 287.926585 L 9.561633 286.865114 L 8.803301 286.106782 L 7.035534 287.874549 L 7.035534 290.374549 Z M 7.035534 285.374549 L 1.000000 285.374549 L 5.267767 289.642316 L 6.026099 290.400648 L 7.793866 288.632881 L 5.402673 287.903364 L 3.696423 293.496071 L 3.626453 293.725415 L 3.601352 293.963877 L 3.032606 299.366986 L 3.002093 299.656857 L 3.039084 299.945973 L 3.939597 306.984258 L 3.977371 307.279500 L 4.083410 307.557619 L 6.784957 314.643273 L 6.873784 314.876249 L 7.006874 315.087092 L 11.509469 322.220140 L 11.614706 322.386858 L 11.744775 322.535019 L 18.048430 329.715486 L 18.137922 329.812164 L 263.079192 580.820099 L 263.175387 580.918677 L 263.281829 581.006090 L 271.765683 587.973292 L 271.965538 588.137418 L 272.194757 588.257160 L 281.721282 593.233712 L 281.950398 593.353399 L 282.199156 593.423676 L 292.768392 596.409595 L 292.997431 596.474301 L 293.234565 596.494626 L 304.846550 597.489929 L 305.060051 597.508229 L 305.273551 597.489929 L 316.885537 596.494626 L 317.122671 596.474301 L 317.351709 596.409595 L 327.920946 593.423676 L 328.169703 593.353399 L 328.398819 593.233712 L 337.925345 588.257160 L 338.154564 588.137418 L 338.354418 587.973292 L 346.838272 581.006090 L 346.944714 580.918677 L 347.040909 580.820099 L 591.982179 329.812164 L 592.055204 329.734056 L 598.358857 322.695770 L 598.496194 322.542428 L 598.606598 322.368686 L 603.109193 315.283032 L 603.246459 315.067020 L 603.337107 314.827676 L 606.038656 307.694628 L 606.144204 307.415943 L 606.181287 307.120256 L 607.081801 299.939789 L 607.117121 299.658152 L 607.088404 299.375765 L 606.519655 293.783058 L 606.493698 293.527813 L 606.416439 293.283161 L 604.710192 287.880052 L 602.326235 288.632881 L 604.094002 290.400648 L 604.852334 289.642316 L 609.120101 285.374549 L 603.084567 285.374549 L 602.326235 285.374549 L 602.326235 287.874549 L 604.532119 286.698082 L 602.162329 282.254709 L 602.066909 282.075796 L 601.943904 281.914599 L 599.005372 278.063685 L 598.875891 277.894001 L 598.719519 277.748722 L 595.212242 274.490262 L 595.056732 274.345784 L 594.879089 274.229593 L 590.803064 271.563586 L 590.636011 271.454322 L 590.453737 271.372950 L 585.808960 269.299393 L 585.645364 269.226359 L 585.473024 269.177400 L 580.259492 267.696291 L 580.043137 267.634826 L 579.819285 267.612966 L 567.685941 266.428082 L 564.417180 266.075212 L 564.972383 266.200280 L 561.915361 265.133882 L 562.641047 265.532178 L 557.237923 261.266549 L 557.832542 261.942513 L 554.135665 255.781068 L 554.455205 256.640346 L 553.222923 249.530978 L 553.259652 249.957942 L 553.259652 60.374910 L 553.259652 60.260091 L 553.249128 60.145755 L 552.206427 48.818141 L 552.183617 48.570347 L 552.112410 48.331911 L 548.984300 37.857465 L 548.910219 37.609406 L 548.786881 37.381791 L 543.573349 27.760475 L 543.455273 27.542572 L 543.296713 27.352093 L 535.997749 18.583867 L 535.851490 18.408165 L 535.675788 18.261905 L 526.907570 10.962935 L 526.717091 10.804374 L 526.499187 10.686297 L 516.877873 5.472766 L 516.650258 5.349428 L 516.402199 5.275347 L 505.927751 2.147240 L 505.689315 2.076033 L 505.441521 2.053224 L 494.113899 1.010524 L 493.999563 1.000000 L 493.884745 1.000000 L 418.051534 1.000000 L 414.718200 1.000000 L 415.651534 4.200001 L 419.632782 17.849979 L 419.544513 17.391893 L 420.871591 31.041871 L 420.859859 30.799957 L 420.859859 237.824628 L 420.870459 237.594653 L 419.519688 252.216278 L 419.614176 251.729039 L 415.561853 265.260510 L 415.759632 264.784992 L 409.005740 277.226353 L 409.281992 276.819016 L 399.826513 288.170311 L 400.147326 287.849499 L 388.796031 297.304978 L 389.203368 297.028725 L 376.762008 303.782618 L 377.237525 303.584839 L 363.706055 307.637162 L 364.193294 307.542674 L 349.571670 308.893445 L 349.801645 308.882845 L 260.318456 308.882845 L 260.548432 308.893445 L 245.926807 307.542674 L 246.414046 307.637162 L 232.882576 303.584839 L 233.358094 303.782618 L 220.916733 297.028725 L 221.324070 297.304978 L 209.972775 287.849499 L 210.293588 288.170311 L 200.838110 276.819016 L 201.114362 277.226353 L 194.360469 264.784992 L 194.558249 265.260510 L 190.505925 251.729039 L 190.600413 252.216278 L 189.249642 237.594653 L 189.260242 237.824628 L 189.260242 128.624802 L 189.250537 128.844872 L 189.700794 123.749816 L 189.611996 124.224594 L 190.962770 119.556118 L 190.769541 120.033257 L 193.020839 115.791346 L 192.739974 116.211564 L 195.891800 112.396202 L 195.562495 112.726517 L 199.354160 109.574691 L 198.943549 109.852142 L 203.114367 107.600844 L 202.638375 107.797490 L 207.188362 106.446716 L 206.704284 106.539733 L 211.633453 106.089476 L 211.179698 106.089574 L 216.132562 106.539831 L 215.657483 106.449684 L 220.278558 107.800459 L 219.818128 107.614492 L 224.107435 109.865790 L 223.711833 109.607765 L 227.669391 112.759592 L 227.340330 112.444447 L 230.658049 116.259809 L 230.362049 115.838640 L 232.731835 120.080551 L 232.522807 119.589653 L 233.944671 124.258129 L 233.846956 123.761301 L 234.320908 128.856357 L 234.310161 128.624802 L 234.310161 237.824628 L 234.310161 237.936900 L 234.320225 238.048720 L 234.746783 242.788308 L 234.768781 243.032735 L 234.837890 243.268218 L 236.117568 247.628619 L 236.190462 247.876998 L 236.312698 248.105173 L 238.445506 252.086406 L 238.564157 252.307887 L 238.724508 252.501326 L 241.710454 256.103411 L 241.859669 256.283416 L 242.039674 256.432632 L 245.641759 259.418577 L 245.835199 259.578929 L 246.056679 259.697579 L 250.037912 261.830387 L 250.266087 261.952624 L 250.514466 262.025517 L 254.874867 263.305196 L 255.110350 263.374305 L 255.354777 263.396303 L 260.094365 263.822861 L 260.206185 263.832924 L 260.318456 263.832924 L 349.801645 263.832924 L 349.913916 263.832924 L 350.025736 263.822861 L 354.765324 263.396303 L 355.009751 263.374305 L 355.245235 263.305196 L 359.605636 262.025517 L 359.854014 261.952624 L 360.082189 261.830387 L 364.063422 259.697579 L 364.284903 259.578929 L 364.478342 259.418577 L 368.080427 256.432632 L 368.260432 256.283416 L 368.409648 256.103411 L 371.395593 252.501326 L 371.555945 252.307887 L 371.674595 252.086406 L 373.807403 248.105173 L 373.929640 247.876998 L 374.002533 247.628619 L 375.282212 243.268218 L 375.351321 243.032735 L 375.373319 242.788308 L 375.799876 238.048720 L 375.809940 237.936900 L 375.809940 237.824628 L 375.809940 30.799957 L 375.809940 30.687685 L 375.799876 30.575865 L 375.373319 25.836279 L 375.351321 25.591852 L 375.282212 25.356369 L 374.002533 20.995966 L 373.929640 20.747587 L 373.807403 20.519413 L 371.674595 16.538177 L 371.555945 16.316696 L 371.395592 16.123256 L 368.409647 12.521174 L 368.260432 12.341168 L 368.080426 12.191952 L 364.478341 9.206010 L 364.284902 9.045659 L 364.063422 8.927009 L 360.082189 6.794201 L 359.854015 6.671964 L 359.605636 6.599071 L 355.245236 5.319390 L 355.009752 5.250281 L 354.765325 5.228283 L 350.025737 4.801724 L 349.913917 4.791661 L 349.801645 4.791661 L 96.518722 4.791661 L 95.984572 4.791661 L 95.497062 5.009949 L 87.558254 8.564632 L 87.385058 8.642182 L 87.225552 8.744987 L 80.092500 13.342363 L 79.928764 13.447894 L 79.783350 13.577514 L 73.456031 19.217602 L 73.313716 19.344460 L 73.192283 19.491431 L 67.670673 26.174250 L 67.552050 26.317819 L 67.456008 26.477380 L 62.977097 33.918528 L 62.875223 34.087779 L 62.801195 34.270929 L 59.601983 42.186005 L 59.527264 42.370864 L 59.482790 42.565230 L 57.563269 50.954264 L 57.520563 51.140906 L 57.506777 51.331874 L 56.866938 60.194899 L 56.860449 60.374910 L 56.860449 249.957942 L 56.897178 249.530978 L 55.664896 256.640346 L 55.984436 255.781068 L 52.287559 261.942513 L 52.882177 261.266550 L 47.479062 265.532179 L 48.204748 265.133882 L 45.147727 266.200280 L 45.702931 266.075212 L 42.408919 266.430676 L 30.300814 267.612966 L 30.076962 267.634826 L 29.860607 267.696291 L 24.647076 269.177400 L 24.474736 269.226359 L 24.311139 269.299394 L 19.666364 271.372950 L 19.484090 271.454322 L 19.317037 271.563587 L 15.241013 274.229594 L 15.063371 274.345785 L 14.907860 274.490262 L 11.400585 277.748722 L 11.244213 277.894001 L 11.114731 278.063685 L 8.176199 281.914599 L 8.053194 282.075796 L 7.957774 282.254709 L 5.587982 286.698081 L 7.793866 287.874549 L 7.793866 285.374549 L 7.035534 285.374549 Z" transform="scale(1.000000,1.000000) translate(443.885726,104.022910)" fill="#ffffff" opacity="1.000000"></path>
    </g>
</svg>