<?xml version="1.0" encoding="UTF-8" standalone="yes"?>
<!DOCTYPE svg PUBLIC "-//W3C//DTD SVG 1.1//EN" "http://www.w3.org/Graphics/SVG/1.1/DTD/svg11.dtd">

<svg width="1440" height="781" viewBox="0 0 1440 781" xmlns="http://www.w3.org/2000/svg" xmlns:xlink="http://www.w3.org/1999/xlink" version="1.1" baseProfile="full">
    <g transform="scale(1,-1) translate(0,-781)">
        <path d="M 1.000000 3.500000 L 1.000000 419.613471 L 1.005448 419.778431 L 1.695449 430.212729 L 1.708591 430.411461 L 1.753032 430.605606 L 3.823038 439.648645 L 3.878601 439.891378 L 3.980952 440.118382 L 7.430969 447.770170 L 7.551507 448.037510 L 7.730640 448.269698 L 12.560673 454.530239 L 12.751556 454.777656 L 12.997467 454.970475 L 19.207521 459.839774 L 19.440038 460.022091 L 19.708651 460.145180 L 27.298731 463.623244 L 27.528036 463.728321 L 27.773709 463.785475 L 36.743819 465.872309 L 36.940835 465.918144 L 37.142658 465.931708 L 47.492805 466.627318 L 47.660446 466.632945 L 68.125043 466.632945 L 68.019340 466.630710 L 75.177476 466.933636 L 74.910982 466.908010 L 80.947132 467.816793 L 80.582964 467.733747 L 85.497147 469.248396 L 85.013377 469.041336 L 88.805616 471.161857 L 88.274460 470.763914 L 91.326207 473.759558 L 90.981780 473.338539 L 93.674485 477.478566 L 93.483278 477.125431 L 95.816952 482.409865 L 95.714070 482.133971 L 97.688728 488.562836 L 97.653180 488.435133 L 101.243460 502.796254 L 101.283832 502.939482 L 104.492651 513.149359 L 104.533846 513.280436 L 104.589158 513.406209 L 108.112113 521.417010 L 108.197467 521.611097 L 108.314289 521.788037 L 112.151394 527.599788 L 112.339270 527.884349 L 112.596491 528.108200 L 116.747761 531.720928 L 117.087961 532.016993 L 117.510167 532.175524 L 123.366808 534.374587 L 123.584535 534.456339 L 123.813606 534.496527 L 132.766839 536.067273 L 132.884655 536.087942 L 133.003905 536.097269 L 145.053771 537.039709 L 145.196865 537.046783 L 160.343403 537.360927 L 298.262000 537.361465 L 310.993187 537.035274 L 311.163597 537.025066 L 321.519300 536.048963 L 321.650791 536.036569 L 321.780244 536.010389 L 329.824693 534.383544 L 330.044100 534.339173 L 330.252134 534.256529 L 335.985361 531.978937 L 336.330579 531.841796 L 336.621009 531.610207 L 340.940575 528.165785 L 341.195537 527.962478 L 341.389817 527.700573 L 345.193266 522.573223 L 345.334076 522.383401 L 345.436817 522.170554 L 348.724160 515.360249 L 348.797256 515.208818 L 348.849415 515.048962 L 351.620663 506.555676 L 351.665985 506.399778 L 355.615293 490.961574 L 355.584042 491.072940 L 358.153336 482.669409 L 358.075753 482.886739 L 360.757236 476.345701 L 360.590515 476.679118 L 363.384199 472.000552 L 362.977564 472.514137 L 365.883458 469.698022 L 365.073208 470.223495 L 369.190809 468.574210 L 368.711856 468.712509 L 375.140678 467.534448 L 374.808977 467.572564 L 394.600421 466.630116 L 394.481508 466.632945 L 641.851810 466.632945 L 641.977618 466.629778 L 653.556298 466.046363 L 653.718720 466.038179 L 653.878714 466.009021 L 663.482701 464.258768 L 663.710778 464.217203 L 663.927323 464.134406 L 671.556649 461.217305 L 671.862275 461.100448 L 672.127533 460.908872 L 677.782229 456.824913 L 678.111066 456.587419 L 678.347942 456.258137 L 682.431901 450.581003 L 682.623752 450.314310 L 682.740186 450.007105 L 685.657287 442.310465 L 685.739056 442.094721 L 685.779959 441.867655 L 687.530212 432.151473 L 687.558740 431.993107 L 687.566730 431.832390 L 688.150145 420.096627 L 688.153228 419.972499 L 688.153228 3.500000 L 688.153228 1.000000 L 685.653228 1.000000 L 3.500000 1.000000 L 1.000000 1.000000 L 1.000000 3.500000 Z M 6.000000 3.500000 L 3.500000 6.000000 L 685.653228 6.000000 L 683.153228 3.500000 L 683.153228 419.972499 L 683.156312 419.848371 L 682.572896 431.584134 L 682.609414 431.265051 L 680.859161 440.981233 L 680.981833 440.538423 L 678.064733 448.235063 L 678.373017 447.661164 L 674.289058 453.338297 L 674.854771 452.771521 L 669.200074 456.855480 L 669.770958 456.547047 L 662.141632 459.464148 L 662.586254 459.339786 L 652.982267 461.090039 L 653.304682 461.052698 L 641.726002 461.636113 L 641.851810 461.632945 L 394.481508 461.632945 L 394.362595 461.635775 L 374.571152 462.578224 L 374.404026 462.586182 L 374.239451 462.616340 L 367.810629 463.794400 L 367.564223 463.839553 L 367.331675 463.932699 L 363.214074 465.581984 L 362.757229 465.764971 L 362.403824 466.107457 L 359.497931 468.923573 L 359.260677 469.153496 L 359.091296 469.437158 L 356.297613 474.115724 L 356.201789 474.276201 L 356.130892 474.449142 L 353.449408 480.990180 L 353.405596 481.097053 L 353.371825 481.207510 L 350.802531 489.611041 L 350.771280 489.722407 L 346.821972 505.160612 L 346.867294 505.004714 L 344.096046 513.498000 L 344.221301 513.186713 L 340.933958 519.997017 L 341.177509 519.594348 L 337.374059 524.721699 L 337.823301 524.256487 L 333.503735 527.700910 L 334.139382 527.332179 L 328.406155 529.609771 L 328.833596 529.482756 L 320.789148 531.109601 L 321.050092 531.071027 L 310.694389 532.047130 L 310.864799 532.036922 L 298.197806 532.362289 L 160.395243 532.361465 L 145.300544 532.047858 L 145.443639 532.054932 L 133.393773 531.112492 L 133.630838 531.142488 L 124.677605 529.571742 L 125.124403 529.693683 L 119.267762 527.494620 L 120.030169 527.949217 L 115.878899 524.336490 L 116.323996 524.844902 L 112.486890 519.033151 L 112.689067 519.404178 L 109.166112 511.393376 L 109.262619 511.650226 L 106.053800 501.440349 L 106.094172 501.583576 L 102.503892 487.222455 L 102.468344 487.094753 L 100.493686 480.665888 L 100.450383 480.524906 L 100.390804 480.389993 L 98.057129 475.105559 L 97.975753 474.921288 L 97.865922 474.752424 L 95.173218 470.612396 L 95.024042 470.383040 L 94.828790 470.191377 L 91.777043 467.195733 L 91.538112 466.961195 L 91.245888 466.797791 L 87.453649 464.677269 L 87.222720 464.548140 L 86.969878 464.470209 L 82.055695 462.955561 L 81.876721 462.900398 L 81.691526 462.872516 L 75.655377 461.963733 L 75.522817 461.943775 L 75.388883 461.938107 L 68.230746 461.635181 L 68.125043 461.632945 L 47.660446 461.632945 L 47.828087 461.638572 L 37.477940 460.942962 L 37.876779 461.002361 L 28.906669 458.915526 L 29.381647 459.077757 L 21.791568 455.599692 L 22.292698 455.905098 L 16.082645 451.035798 L 16.519440 451.476034 L 11.689407 445.215493 L 11.989079 445.715022 L 8.539062 438.063234 L 8.696976 438.532971 L 6.626970 429.489932 L 6.684553 429.882808 L 5.994552 419.448511 L 6.000000 419.613471 L 6.000000 3.500000 Z M 21.102084 25.028464 L 668.070567 22.515270 L 665.560856 20.015289 L 665.560856 419.972499 L 665.566392 419.806204 L 665.151270 426.033123 L 665.209754 425.637275 L 663.964385 431.033927 L 664.124446 430.561568 L 662.048826 435.127958 L 662.351363 434.627610 L 659.445490 438.363740 L 659.884023 437.925207 L 656.147893 440.831080 L 656.648241 440.528543 L 652.081852 442.604163 L 652.554210 442.444102 L 647.157558 443.689471 L 647.553406 443.630987 L 641.326487 444.046109 L 641.492782 444.040573 L 50.173642 444.040573 L 50.325622 444.045196 L 43.509671 443.630074 L 43.873415 443.679223 L 37.966269 442.433854 L 38.409318 442.571238 L 33.410973 440.495619 L 33.900265 440.766544 L 29.810718 437.860672 L 30.266233 438.277977 L 27.085480 434.541848 L 27.420166 435.048833 L 25.148204 430.482444 L 25.333807 430.983810 L 23.970632 425.587158 L 24.040134 426.017472 L 23.585743 419.790553 L 23.592373 419.972499 L 23.592373 22.528483 L 21.102084 25.028464 Z M 21.082661 20.028502 L 18.592373 20.038176 L 18.592373 22.528483 L 18.592373 419.972499 L 18.599002 420.154446 L 19.053393 426.381365 L 19.069316 426.599563 L 19.122895 426.811679 L 20.486070 432.208331 L 20.551913 432.468994 L 20.671672 432.709698 L 22.943634 437.276087 L 23.079949 437.550063 L 23.278321 437.783072 L 26.459073 441.519202 L 26.660852 441.756212 L 26.914588 441.936507 L 31.004136 444.842380 L 31.233533 445.005381 L 31.493427 445.113304 L 36.491772 447.188924 L 36.706896 447.278256 L 36.934821 447.326309 L 42.841967 448.571678 L 43.022031 448.609639 L 43.205712 448.620826 L 50.021662 449.035949 L 50.173642 449.040573 L 641.492782 449.040573 L 641.659078 449.035036 L 647.885997 448.619913 L 648.086269 448.606562 L 648.281845 448.561429 L 653.678497 447.316060 L 653.922700 447.259706 L 654.150856 447.156000 L 658.717245 445.080380 L 658.985231 444.958570 L 659.217593 444.777844 L 662.953722 441.871971 L 663.200397 441.680114 L 663.392254 441.433439 L 666.298127 437.697310 L 666.478853 437.464948 L 666.600663 437.196962 L 668.676283 432.630573 L 668.779989 432.402417 L 668.836343 432.158214 L 670.081712 426.761562 L 670.126845 426.565985 L 670.140196 426.365714 L 670.555319 420.138795 L 670.560856 419.972499 L 670.560856 20.015289 L 670.560856 17.505558 L 668.051144 17.515308 L 21.082661 20.028502 Z M 113.721601 466.632945 L 340.268278 466.632945 L 337.850592 463.496712 L 330.670031 490.782841 L 328.420429 498.531140 L 328.501906 498.295136 L 326.011151 504.488367 L 326.180386 504.145813 L 323.465238 508.723407 L 323.840979 508.237746 L 320.901433 511.199719 L 321.599080 510.704553 L 317.649776 512.589450 L 318.156121 512.411612 L 312.411687 513.757967 L 312.822916 513.697085 L 295.948582 514.774169 L 296.107832 514.769092 L 164.344551 514.769092 L 164.474172 514.772454 L 144.592975 513.740256 L 144.928717 513.780588 L 138.118423 512.490332 L 138.546049 512.611563 L 133.822589 510.805196 L 134.507252 511.200937 L 131.017943 508.362374 L 131.480247 508.856516 L 128.372415 504.469661 L 128.604238 504.871293 L 125.877874 498.936119 L 125.991721 499.232159 L 123.646816 491.748640 L 123.677283 491.853906 L 116.137695 463.490692 L 113.721601 466.632945 Z M 113.721601 461.632945 L 110.470224 461.632945 L 111.305506 464.775198 L 118.845095 493.138412 L 118.875562 493.243677 L 121.220467 500.727196 L 121.267982 500.878834 L 121.334314 501.023236 L 124.060677 506.958410 L 124.157884 507.170023 L 124.292501 507.360043 L 127.400333 511.746898 L 127.597737 512.025543 L 127.862637 512.241040 L 131.351947 515.079603 L 131.662584 515.332307 L 132.036610 515.475343 L 136.760069 517.281711 L 136.968472 517.361409 L 137.187695 517.402943 L 143.997990 518.693199 L 144.164494 518.724744 L 144.333732 518.733531 L 164.214929 519.765729 L 164.344551 519.769092 L 296.107832 519.769092 L 296.267082 519.764014 L 313.141417 518.686930 L 313.349571 518.673644 L 313.552646 518.626048 L 319.297081 517.279693 L 319.559853 517.218106 L 319.803426 517.101855 L 323.752730 515.216958 L 324.144550 515.029953 L 324.450377 514.721792 L 327.389923 511.759819 L 327.607843 511.540236 L 327.765665 511.274158 L 330.480813 506.696563 L 330.578558 506.531772 L 330.650049 506.354010 L 333.140804 500.160779 L 333.187442 500.044814 L 333.222280 499.924776 L 335.488643 492.115892 L 342.685964 464.769179 L 343.511289 461.632945 L 340.268278 461.632945 L 113.721601 461.632945 Z" transform="scale(1.000000,1.000000) translate(446.433171,132.957850)" fill="#ffffff" opacity="1.000000"></path>
    </g>
</svg>