<?xml version="1.0" encoding="UTF-8" standalone="yes"?>
<!DOCTYPE svg PUBLIC "-//W3C//DTD SVG 1.1//EN" "http://www.w3.org/Graphics/SVG/1.1/DTD/svg11.dtd">

<svg width="1440" height="781" viewBox="0 0 1440 781" xmlns="http://www.w3.org/2000/svg" xmlns:xlink="http://www.w3.org/1999/xlink" version="1.1" baseProfile="full">
    <g transform="scale(1,-1) translate(0,-781)">
        <path d="M 153.727926 531.216220 L 74.195495 531.216220 L 74.356533 531.221412 L 57.618133 530.140959 L 58.006888 530.196971 L 43.567471 526.941804 L 44.040169 527.099260 L 31.879025 521.648666 L 32.386898 521.953143 L 22.483315 514.286412 L 22.929815 514.732911 L 15.263081 504.829329 L 15.567558 505.337202 L 10.116963 493.176057 L 10.274419 493.648755 L 7.019250 479.209336 L 7.075262 479.598091 L 5.994808 462.859686 L 6.000000 463.020724 L 6.000000 383.488291 L 5.995108 383.644610 L 7.075562 366.398779 L 7.021151 366.783753 L 10.276320 352.106155 L 10.117934 352.585182 L 15.568530 340.392971 L 15.254468 340.914076 L 22.921201 331.124406 L 22.458400 331.578882 L 32.361983 324.108908 L 31.844715 324.409416 L 44.005859 319.176291 L 43.539066 319.324907 L 57.978482 316.245785 L 57.607369 316.296238 L 74.345769 315.288275 L 74.195495 315.292795 L 153.727926 315.292795 L 153.582058 315.288536 L 170.827889 316.296500 L 170.460471 316.247499 L 185.138069 319.326621 L 184.665301 319.177204 L 196.857512 324.410330 L 196.327023 324.100490 L 206.116693 331.570465 L 205.645751 331.099524 L 213.115726 340.889194 L 212.805887 340.358705 L 218.039012 352.550916 L 217.889596 352.078148 L 220.968717 366.755747 L 220.919717 366.388328 L 221.927680 383.634159 L 221.923421 383.488291 L 221.923421 463.020724 L 221.927942 462.870450 L 220.919978 479.608855 L 220.970431 479.237742 L 217.891309 493.677161 L 218.039926 493.210368 L 212.806801 505.371513 L 213.107309 504.854244 L 205.637334 514.757826 L 206.091811 514.295025 L 196.302141 521.961757 L 196.823246 521.647695 L 184.631035 527.098288 L 185.110062 526.939903 L 170.432464 530.195070 L 170.817438 530.140659 L 153.571608 531.221112 L 153.727926 531.216220 Z M 153.727926 536.216220 L 153.884245 536.211328 L 171.130076 535.130875 L 171.324685 535.118683 L 171.515050 535.076464 L 186.192648 531.821297 L 186.440193 531.766397 L 186.671675 531.662912 L 198.863886 526.212318 L 199.143690 526.087230 L 199.384991 525.898257 L 209.174661 518.231525 L 209.432175 518.029855 L 209.629138 517.768724 L 217.099113 507.865142 L 217.280535 507.624614 L 217.399621 507.347873 L 222.632746 495.186729 L 222.730032 494.960648 L 222.781363 494.719936 L 225.860484 480.280517 L 225.899649 480.096855 L 225.910937 479.909404 L 226.918901 463.170999 L 226.923421 463.020724 L 226.923421 383.488291 L 226.919162 383.342423 L 225.911198 366.096592 L 225.900355 365.911062 L 225.862198 365.729174 L 222.783076 351.051576 L 222.731925 350.807747 L 222.633660 350.578808 L 217.400535 338.386596 L 217.278454 338.102172 L 217.090696 337.856107 L 209.620721 328.066437 L 209.416897 327.799319 L 209.149780 327.595496 L 199.360110 320.125521 L 199.114045 319.937762 L 198.829621 319.815682 L 186.637409 314.582557 L 186.408470 314.484292 L 186.164641 314.433140 L 171.487043 311.354019 L 171.305156 311.315862 L 171.119625 311.305018 L 153.873794 310.297054 L 153.727926 310.292795 L 74.195495 310.292795 L 74.045220 310.297316 L 57.306820 311.305279 L 57.119369 311.316568 L 56.935707 311.355732 L 42.496291 314.434854 L 42.255579 314.486184 L 42.029498 314.583470 L 29.868354 319.816596 L 29.591613 319.935682 L 29.351086 320.117104 L 19.447503 327.587079 L 19.186372 327.784042 L 18.984702 328.041555 L 11.317968 337.831225 L 11.128994 338.072526 L 11.003906 338.352331 L 5.553311 350.544542 L 5.449826 350.776023 L 5.394926 351.023569 L 2.139757 365.701167 L 2.097538 365.891532 L 2.085346 366.086141 L 1.004892 383.331972 L 1.000000 383.488291 L 1.000000 463.020724 L 1.005192 463.181763 L 2.085646 479.920168 L 2.098335 480.116752 L 2.141657 480.308923 L 5.396826 494.748342 L 5.451885 494.992575 L 5.554283 495.221039 L 11.004878 507.382184 L 11.126830 507.654277 L 11.309355 507.890056 L 18.976089 517.793638 L 19.170917 518.045310 L 19.422588 518.240138 L 29.326171 525.906870 L 29.561950 526.089395 L 29.834044 526.211347 L 41.995188 531.661940 L 42.223652 531.764337 L 42.467885 531.819396 L 56.907302 535.074564 L 57.099472 535.117886 L 57.296056 535.130575 L 74.034457 536.211028 L 74.195495 536.216220 L 153.727926 536.216220 Z M 463.020716 531.216220 L 383.488284 531.216220 L 383.649323 531.221412 L 366.910918 530.140959 L 367.299672 530.196971 L 352.860254 526.941804 L 353.332952 527.099260 L 341.171807 521.648666 L 341.679680 521.953143 L 331.776098 514.286412 L 332.222598 514.732911 L 324.555866 504.829329 L 324.860343 505.337202 L 319.409750 493.176058 L 319.567206 493.648755 L 316.312039 479.209337 L 316.368051 479.598091 L 315.287598 462.859686 L 315.292790 463.020724 L 315.292790 383.488291 L 315.287898 383.644610 L 316.368351 366.398779 L 316.313940 366.783753 L 319.569107 352.106155 L 319.410722 352.585182 L 324.861315 340.392970 L 324.547253 340.914076 L 332.213985 331.124406 L 331.751184 331.578882 L 341.654766 324.108908 L 341.137497 324.409416 L 353.298641 319.176291 L 352.831849 319.324907 L 367.271267 316.245785 L 366.900154 316.296238 L 383.638559 315.288275 L 383.488284 315.292795 L 463.020716 315.292795 L 462.874848 315.288536 L 480.120679 316.296500 L 479.753260 316.247499 L 494.430858 319.326621 L 493.958090 319.177204 L 506.150301 324.410330 L 505.619812 324.100490 L 515.409482 331.570465 L 514.938541 331.099524 L 522.408516 340.889194 L 522.098677 340.358705 L 527.331802 352.550916 L 527.182385 352.078148 L 530.261507 366.755747 L 530.212506 366.388328 L 531.220470 383.634159 L 531.216211 383.488291 L 531.216211 463.020724 L 531.220731 462.870450 L 530.212768 479.608855 L 530.263221 479.237742 L 527.184099 493.677161 L 527.332715 493.210368 L 522.099590 505.371513 L 522.400099 504.854244 L 514.930124 514.757826 L 515.384600 514.295025 L 505.594930 521.961757 L 506.116036 521.647695 L 493.923825 527.098288 L 494.402852 526.939903 L 479.725254 530.195070 L 480.110228 530.140659 L 462.864397 531.221112 L 463.020716 531.216220 Z M 463.020716 536.216220 L 463.177035 536.211328 L 480.422865 535.130875 L 480.617474 535.118683 L 480.807839 535.076464 L 495.485437 531.821297 L 495.732983 531.766397 L 495.964464 531.662912 L 508.156676 526.212318 L 508.436480 526.087230 L 508.677781 525.898257 L 518.467451 518.231525 L 518.724964 518.029855 L 518.921927 517.768724 L 526.391902 507.865142 L 526.573325 507.624614 L 526.692411 507.347873 L 531.925536 495.186729 L 532.022822 494.960648 L 532.074152 494.719936 L 535.153274 480.280517 L 535.192438 480.096855 L 535.203727 479.909404 L 536.211690 463.170999 L 536.216211 463.020724 L 536.216211 383.488291 L 536.211952 383.342423 L 535.203988 366.096592 L 535.193144 365.911062 L 535.154987 365.729174 L 532.075866 351.051576 L 532.024714 350.807747 L 531.926449 350.578808 L 526.693324 338.386596 L 526.571244 338.102172 L 526.383485 337.856107 L 518.913510 328.066437 L 518.709687 327.799319 L 518.442569 327.595496 L 508.652899 320.125521 L 508.406835 319.937762 L 508.122410 319.815682 L 495.930199 314.582557 L 495.701260 314.484292 L 495.457431 314.433140 L 480.779833 311.354019 L 480.597945 311.315862 L 480.412415 311.305018 L 463.166584 310.297054 L 463.020716 310.292795 L 383.488284 310.292795 L 383.338010 310.297316 L 366.599605 311.305279 L 366.412154 311.316568 L 366.228492 311.355732 L 351.789073 314.434854 L 351.548361 314.486184 L 351.322281 314.583470 L 339.161136 319.816596 L 338.884395 319.935682 L 338.643868 320.117104 L 328.740286 327.587079 L 328.479155 327.784042 L 328.277485 328.041555 L 320.610753 337.831225 L 320.421779 338.072527 L 320.296691 338.352331 L 314.846098 350.544542 L 314.742613 350.776024 L 314.687713 351.023569 L 311.432546 365.701168 L 311.390327 365.891533 L 311.378135 366.086141 L 310.297682 383.331972 L 310.292790 383.488291 L 310.292790 463.020724 L 310.297982 463.181763 L 311.378435 479.920168 L 311.391124 480.116752 L 311.434446 480.308922 L 314.689613 494.748341 L 314.744672 494.992574 L 314.847070 495.221039 L 320.297663 507.382183 L 320.419615 507.654277 L 320.602140 507.890056 L 328.268872 517.793638 L 328.463700 518.045310 L 328.715371 518.240138 L 338.618953 525.906870 L 338.854732 526.089395 L 339.126826 526.211347 L 351.287970 531.661940 L 351.516435 531.764337 L 351.760668 531.819396 L 366.200087 535.074564 L 366.392257 535.117886 L 366.588841 535.130575 L 383.327246 536.211028 L 383.488284 536.216220 L 463.020716 536.216220 Z M 153.727926 221.923425 L 74.195495 221.923425 L 74.356533 221.928617 L 57.618133 220.848164 L 58.006888 220.904176 L 43.567471 217.649008 L 44.040169 217.806465 L 31.879025 212.355871 L 32.386898 212.660348 L 22.483315 204.993616 L 22.929815 205.440116 L 15.263081 195.536534 L 15.567558 196.044407 L 10.116963 183.883262 L 10.274419 184.355960 L 7.019250 169.916541 L 7.075262 170.305296 L 5.994808 153.566891 L 6.000000 153.727929 L 6.000000 74.195496 L 5.995108 74.351815 L 7.075562 57.105979 L 7.021151 57.490953 L 10.276320 42.813353 L 10.117934 43.292380 L 15.568530 31.100168 L 15.254468 31.621274 L 22.921201 21.831605 L 22.458400 22.286081 L 32.361983 14.816108 L 31.844714 15.116616 L 44.005858 9.883493 L 43.539066 10.032110 L 57.978482 6.952990 L 57.607369 7.003442 L 74.345769 5.995479 L 74.195495 6.000000 L 153.727926 6.000000 L 153.582058 5.995741 L 170.827889 7.003704 L 170.460471 6.954703 L 185.138069 10.033823 L 184.665301 9.884407 L 196.857512 15.117530 L 196.327023 14.807691 L 206.116693 22.277664 L 205.645751 21.806723 L 213.115726 31.596392 L 212.805887 31.065902 L 218.039012 43.258114 L 217.889596 42.785346 L 220.968717 57.462946 L 220.919717 57.095528 L 221.927680 74.341364 L 221.923421 74.195496 L 221.923421 153.727929 L 221.927942 153.577655 L 220.919978 170.316060 L 220.970431 169.944947 L 217.891309 184.384366 L 218.039926 183.917573 L 212.806801 196.078717 L 213.107309 195.561449 L 205.637334 205.465031 L 206.091811 205.002230 L 196.302141 212.668961 L 196.823246 212.354899 L 184.631035 217.805493 L 185.110062 217.647108 L 170.432464 220.902275 L 170.817438 220.847864 L 153.571608 221.928317 L 153.727926 221.923425 Z M 153.727926 226.923425 L 153.884245 226.918533 L 171.130076 225.838080 L 171.324685 225.825888 L 171.515050 225.783669 L 186.192648 222.528502 L 186.440193 222.473602 L 186.671675 222.370117 L 198.863886 216.919523 L 199.143690 216.794435 L 199.384991 216.605461 L 209.174661 208.938730 L 209.432175 208.737059 L 209.629138 208.475928 L 217.099113 198.572346 L 217.280535 198.331819 L 217.399621 198.055078 L 222.632746 185.893933 L 222.730032 185.667853 L 222.781363 185.427141 L 225.860484 170.987722 L 225.899649 170.804060 L 225.910937 170.616609 L 226.918901 153.878203 L 226.923421 153.727929 L 226.923421 74.195496 L 226.919162 74.049628 L 225.911198 56.803792 L 225.900355 56.618262 L 225.862198 56.436374 L 222.783076 41.758773 L 222.731925 41.514944 L 222.633660 41.286005 L 217.400535 29.093794 L 217.278454 28.809369 L 217.090695 28.563304 L 209.620721 18.773635 L 209.416897 18.506518 L 209.149779 18.302694 L 199.360109 10.832721 L 199.114045 10.644963 L 198.829620 10.522882 L 186.637409 5.289759 L 186.408470 5.191494 L 186.164641 5.140343 L 171.487043 2.061223 L 171.305155 2.023066 L 171.119625 2.012222 L 153.873794 1.004259 L 153.727926 1.000000 L 74.195495 1.000000 L 74.045220 1.004521 L 57.306820 2.012484 L 57.119369 2.023772 L 56.935707 2.062936 L 42.496291 5.142056 L 42.255579 5.193387 L 42.029498 5.290673 L 29.868355 10.523796 L 29.591613 10.642882 L 29.351086 10.824304 L 19.447503 18.294277 L 19.186372 18.491240 L 18.984702 18.748753 L 11.317968 28.538423 L 11.128994 28.779724 L 11.003906 29.059528 L 5.553311 41.251740 L 5.449826 41.483221 L 5.394926 41.730767 L 2.139757 56.408367 L 2.097538 56.598732 L 2.085346 56.793341 L 1.004892 74.039177 L 1.000000 74.195496 L 1.000000 153.727929 L 1.005192 153.888967 L 2.085646 170.627373 L 2.098335 170.823957 L 2.141657 171.016128 L 5.396826 185.455546 L 5.451885 185.699779 L 5.554283 185.928244 L 11.004878 198.089389 L 11.126830 198.361482 L 11.309355 198.597261 L 18.976089 208.500843 L 19.170917 208.752515 L 19.422588 208.947343 L 29.326171 216.614075 L 29.561950 216.796600 L 29.834044 216.918551 L 41.995188 222.369145 L 42.223652 222.471542 L 42.467885 222.526601 L 56.907302 225.781768 L 57.099472 225.825091 L 57.296056 225.837780 L 74.034457 226.918233 L 74.195495 226.923425 L 153.727926 226.923425 Z M 463.020716 221.923425 L 383.488284 221.923425 L 383.649323 221.928617 L 366.910918 220.848164 L 367.299672 220.904176 L 352.860254 217.649008 L 353.332952 217.806465 L 341.171807 212.355871 L 341.679680 212.660348 L 331.776098 204.993616 L 332.222598 205.440116 L 324.555866 195.536534 L 324.860343 196.044407 L 319.409750 183.883262 L 319.567206 184.355960 L 316.312039 169.916541 L 316.368051 170.305296 L 315.287598 153.566891 L 315.292790 153.727929 L 315.292790 74.195496 L 315.287898 74.351815 L 316.368351 57.105979 L 316.313940 57.490953 L 319.569107 42.813352 L 319.410722 43.292379 L 324.861315 31.100168 L 324.547253 31.621273 L 332.213985 21.831604 L 331.751183 22.286081 L 341.654765 14.816108 L 341.137497 15.116616 L 353.298641 9.883493 L 352.831848 10.032110 L 367.271267 6.952990 L 366.900154 7.003442 L 383.638559 5.995479 L 383.488284 6.000000 L 463.020716 6.000000 L 462.874848 5.995741 L 480.120679 7.003704 L 479.753261 6.954703 L 494.430859 10.033823 L 493.958091 9.884407 L 506.150302 15.117530 L 505.619812 14.807691 L 515.409482 22.277664 L 514.938541 21.806723 L 522.408516 31.596392 L 522.098677 31.065902 L 527.331802 43.258114 L 527.182385 42.785346 L 530.261507 57.462946 L 530.212506 57.095528 L 531.220470 74.341364 L 531.216211 74.195496 L 531.216211 153.727929 L 531.220731 153.577655 L 530.212768 170.316060 L 530.263221 169.944947 L 527.184099 184.384366 L 527.332715 183.917573 L 522.099590 196.078717 L 522.400099 195.561449 L 514.930124 205.465031 L 515.384600 205.002230 L 505.594930 212.668961 L 506.116036 212.354899 L 493.923825 217.805493 L 494.402852 217.647108 L 479.725254 220.902275 L 480.110228 220.847864 L 462.864397 221.928317 L 463.020716 221.923425 Z M 463.020716 226.923425 L 463.177035 226.918533 L 480.422865 225.838080 L 480.617474 225.825888 L 480.807839 225.783669 L 495.485437 222.528502 L 495.732983 222.473602 L 495.964464 222.370117 L 508.156676 216.919523 L 508.436480 216.794435 L 508.677781 216.605461 L 518.467451 208.938730 L 518.724964 208.737059 L 518.921927 208.475928 L 526.391902 198.572346 L 526.573325 198.331819 L 526.692411 198.055078 L 531.925536 185.893933 L 532.022822 185.667853 L 532.074152 185.427141 L 535.153274 170.987722 L 535.192438 170.804060 L 535.203727 170.616609 L 536.211690 153.878203 L 536.216211 153.727929 L 536.216211 74.195496 L 536.211952 74.049628 L 535.203988 56.803792 L 535.193144 56.618262 L 535.154987 56.436374 L 532.075866 41.758773 L 532.024714 41.514944 L 531.926449 41.286005 L 526.693324 29.093794 L 526.571244 28.809369 L 526.383485 28.563304 L 518.913510 18.773635 L 518.709687 18.506518 L 518.442569 18.302694 L 508.652899 10.832721 L 508.406835 10.644963 L 508.122410 10.522882 L 495.930199 5.289759 L 495.701260 5.191494 L 495.457431 5.140343 L 480.779833 2.061223 L 480.597945 2.023066 L 480.412415 2.012222 L 463.166584 1.004259 L 463.020716 1.000000 L 383.488284 1.000000 L 383.338010 1.004521 L 366.599605 2.012484 L 366.412154 2.023772 L 366.228492 2.062936 L 351.789074 5.142056 L 351.548362 5.193387 L 351.322281 5.290673 L 339.161137 10.523796 L 338.884395 10.642882 L 338.643868 10.824304 L 328.740286 18.294277 L 328.479155 18.491240 L 328.277485 18.748754 L 320.610753 28.538423 L 320.421779 28.779724 L 320.296691 29.059528 L 314.846098 41.251740 L 314.742613 41.483221 L 314.687713 41.730767 L 311.432546 56.408368 L 311.390327 56.598733 L 311.378135 56.793341 L 310.297682 74.039177 L 310.292790 74.195496 L 310.292790 153.727929 L 310.297982 153.888967 L 311.378435 170.627373 L 311.391124 170.823957 L 311.434446 171.016127 L 314.689613 185.455546 L 314.744672 185.699779 L 314.847070 185.928244 L 320.297663 198.089388 L 320.419615 198.361482 L 320.602140 198.597261 L 328.268872 208.500843 L 328.463700 208.752514 L 328.715371 208.947343 L 338.618953 216.614074 L 338.854732 216.796600 L 339.126826 216.918551 L 351.287970 222.369145 L 351.516435 222.471542 L 351.760668 222.526601 L 366.200087 225.781768 L 366.392257 225.825091 L 366.588841 225.837780 L 383.327246 226.918233 L 383.488284 226.923425 L 463.020716 226.923425 Z" transform="scale(1.000000,1.000000) translate(494.374737,121.891890)" fill="#ffffff" opacity="1.000000"></path>
    </g>
</svg>